HIERARCHY
ROOT Hips
{
	OFFSET	0	0	0
	CHANNELS 6  Xposition Yposition Zposition Xrotation Yrotation Zrotation
	JOINT Spine
	{
		OFFSET	0	6.86795	1.37906
		CHANNELS 3  Xrotation Yrotation Zrotation
		JOINT Spine1
		{
			OFFSET	0	11.7606	-2.1001
			CHANNELS 3  Xrotation Yrotation Zrotation
			JOINT Spine2
			{
				OFFSET	0	8.91491	0.955545
				CHANNELS 3  Xrotation Yrotation Zrotation
				JOINT Spine3
				{
					OFFSET	0	10.6685	3.17115
					CHANNELS 3  Xrotation Yrotation Zrotation
					JOINT Spine4
					{
						OFFSET	0	15.7927	-1.61708
						CHANNELS 3  Xrotation Yrotation Zrotation
						JOINT Neck
						{
							OFFSET	0	7.53935	-5.28175
							CHANNELS 3  Xrotation Yrotation Zrotation
							JOINT Head
							{
								OFFSET	0	9.05142	-2.70913
								CHANNELS 3  Xrotation Yrotation Zrotation
								End Site
								{
									OFFSET	0	18.8799	-0.913543
								}
							}
						}
					}
					JOINT LeftShoulder
					{
						OFFSET	-4.53621	19.1949	-9.05142
						CHANNELS 3  Xrotation Yrotation Zrotation
						JOINT LeftArm
						{
							OFFSET	-9.8955	-2.70912	3.47568
							CHANNELS 3  Xrotation Yrotation Zrotation
							JOINT LeftForeArm
							{
								OFFSET	-33.3495	-1.52213	2.38045
								CHANNELS 3  Xrotation Yrotation Zrotation
								JOINT LeftHand
								{
									OFFSET	-27.054	-1.86958	1.93108
									CHANNELS 3  Xrotation Yrotation Zrotation
									End Site
									{
										OFFSET	-9.87335	-0.682306	0.704704
									}
								}
							}
						}
					}
					JOINT RightShoulder
					{
						OFFSET	4.53621	19.1949	-9.05142
						CHANNELS 3  Xrotation Yrotation Zrotation
						JOINT RightArm
						{
							OFFSET	9.8955	-2.70912	3.47568
							CHANNELS 3  Xrotation Yrotation Zrotation
							JOINT RightForeArm
							{
								OFFSET	33.3495	-1.52213	2.38045
								CHANNELS 3  Xrotation Yrotation Zrotation
								JOINT RightHand
								{
									OFFSET	27.054	-1.86958	1.93108
									CHANNELS 3  Xrotation Yrotation Zrotation
									End Site
									{
										OFFSET	9.87335	-0.682306	0.704704
									}
								}
							}
						}
					}
				}
			}
		}
	}
	JOINT LeftUpLeg
	{
		OFFSET	-9.35843	-3.43397	-0.689532
		CHANNELS 3  Xrotation Yrotation Zrotation
		JOINT LeftLeg
		{
			OFFSET	-2.06148	-40.3938	-0.631444
			CHANNELS 3  Xrotation Yrotation Zrotation
			JOINT LeftFoot
			{
				OFFSET	-2.01493	-37.1416	3.19418
				CHANNELS 3  Xrotation Yrotation Zrotation
				JOINT LeftToeBase
				{
					OFFSET	0	-4.59973	-12.2169
					CHANNELS 3  Xrotation Yrotation Zrotation
					End Site
					{
						OFFSET	0	-1.83989	-7.35956
					}
				}
			}
		}
	}
	JOINT RightUpLeg
	{
		OFFSET	9.35843	-3.43397	-0.689532
		CHANNELS 3  Xrotation Yrotation Zrotation
		JOINT RightLeg
		{
			OFFSET	2.06148	-40.3938	-0.631444
			CHANNELS 3  Xrotation Yrotation Zrotation
			JOINT RightFoot
			{
				OFFSET	2.01493	-37.1416	3.19418
				CHANNELS 3  Xrotation Yrotation Zrotation
				JOINT RightToeBase
				{
					OFFSET	0	-4.59973	-12.2169
					CHANNELS 3  Xrotation Yrotation Zrotation
					End Site
					{
						OFFSET	0	-1.83989	-7.35956
					}
				}
			}
		}
	}
}
MOTION
Frames: 10
Frame Time: 0.020408
 0 -8.54439 2.99032 -0 0 -0 -0 0 -0 -0 0 -0 -0 0 -0 -0 0 -0 -0 0 -0 -0 0 -0 -0 0 -0 -0 0 -0 -0 0 -0 -0 0 -0 -0 0 -0 -0 0 -0 -0 0 -0 -0 0 -0 -0 0 -0 -0 0 -0 -0 0 -0 -0 0 -0 -0 0 -0 -0 0 -0 -0 0 -0 -0 0 -0 -0 0 -0
 88.0576 87.9633 -258.773 9.04553 155.552 -9.70531 180 179.989 -179.033 5.37017 0.0210253 1.61101 6.00522 0.0630758 1.61101 5.48903 0.0105153 0.966604 177.337 -179.985 -179.678 167.391 173.618 179.328 176.09 167.524 -178.794 171.672 158.184 167.945 124.896 -113.581 -155.931 169.271 -124.833 169.454 -0 -50.4772 -4.21564 1.55576 28.7437 -3.37973 98.7077 126.712 158.701 123.166 130.693 -128.526 -0 36.5634 -37.2407 0.654907 35.6973 12.3737 4.02241 -9.94684 -0.0262492 2.88411 0.0278384 11.3996 162.913 180 -180 28.3594 -31.1633 13.6226 160.304 164.447 179.762 8.64564 0.0204477 -11.5098 169.286 180 -180
 87.9296 87.9678 -258.809 9.01044 155.669 -9.42432 180 179.993 -179.056 5.37231 0.013779 1.57409 6.01971 0.041337 1.57409 5.52615 0.00689116 0.944453 177.254 -179.985 -179.686 167.152 173.634 179.126 176.015 167.411 -178.826 171.566 158.161 167.791 124.588 -113.039 -156.075 170.155 -125.464 170.132 -0 -51.0217 -4.59318 1.57671 28.7269 -3.42529 98.2922 126.8 159.153 123.668 130.475 -129.145 -0 35.8242 -36.3541 0.618045 35.1795 11.8238 3.94368 -9.95845 0.0417292 3.28414 0.0147397 11.4108 162.915 180 -180 27.9845 -31.5753 13.2082 160.555 164.516 179.859 8.62514 0.0349623 -11.4839 169.288 180 -180
 87.8815 87.9769 -258.9 8.97177 155.865 -9.19447 180 179.997 -179.072 5.37307 0.00508863 1.547 6.03003 0.0152659 1.547 5.5538 0.00254491 0.928199 177.19 -179.985 -179.691 166.97 173.636 178.991 175.958 167.321 -178.845 171.436 158 167.636 125.093 -112.566 -155.544 171.256 -126.047 171.139 -0 -51.6735 -5.2337 1.53292 28.7827 -3.33 98.4047 126.687 159.116 124.086 130.173 -129.607 -0 34.9441 -35.244 0.611632 34.6641 11.6156 3.85 -9.96396 0.0235343 3.55136 0.0190611 11.4186 162.917 180 -180 27.4717 -32.1363 12.7633 160.743 164.729 179.952 8.90709 0.0306508 -11.5318 169.29 180 -180
 87.7214 87.9737 -258.928 8.92687 156.604 -8.87226 180 179.987 -179.066 5.38027 0.0251649 1.55637 6.03606 0.0754947 1.55637 5.55857 0.0125854 0.933822 177.194 -179.985 -179.689 166.969 173.772 178.543 175.958 167.286 -178.96 171.063 157.736 167.143 125.621 -112.89 -155.2 172.176 -126.418 171.962 -0 -52.3563 -5.86147 1.51746 28.9122 -3.2962 98.286 125.882 159.364 124.745 129.83 -130.302 -0 34.1039 -34.0361 0.565641 34.0049 11.3273 3.67766 -10.0049 0.0603771 4.01575 -0.0186369 11.4721 162.919 180 -180 27.139 -32.8388 12.6012 161.155 164.969 179.827 9.00345 0.0114243 -11.5102 169.29 180 -180
 87.5834 87.9925 -258.971 8.86572 157.33 -8.52208 180 179.992 -179.09 5.38407 0.016303 1.51638 6.04114 0.048909 1.51638 5.56334 0.00815333 0.90983 177.189 -179.985 -179.697 166.951 173.875 178.336 175.954 167.347 -179.021 170.81 157.812 166.739 125.867 -112.925 -155.219 172.806 -126.096 172.547 -0 -53.0324 -6.33344 1.48798 28.8999 -3.23213 98.1384 125.145 159.688 125.932 129.765 -131.419 -0 33.4054 -32.9772 1.24219 33.5233 10.4969 3.55815 -9.99594 -0.0482094 3.87129 -0.00935583 11.4942 162.92 180 -180 26.8031 -33.5119 12.3881 161.466 165.288 179.778 9.00583 0.0179031 -11.517 169.289 180 -180
 87.4437 88.0097 -259.018 8.80247 157.725 -8.3069 180 179.991 -179.093 5.38416 0.0185547 1.51103 6.0287 0.0556642 1.51103 5.52617 0.00927943 0.90662 177.276 -179.986 -179.698 167.195 174.047 177.949 176.031 167.42 -179.142 170.565 157.997 166.315 125.584 -112.919 -155.688 173.142 -125.522 172.795 -0 -53.6789 -6.59814 1.47894 28.8008 -3.21262 97.5025 124.463 160.372 127.21 129.741 -132.673 -0 32.8018 -32.0668 1.59216 33.0765 10.1026 3.30679 -9.98164 0.0452957 4.00422 -0.0020842 11.4853 162.922 180 -180 26.7039 -34.2034 12.3119 161.936 165.442 179.709 8.74189 0.0355582 -11.5212 169.287 180 -180
 87.3174 88.0287 -258.993 8.73481 158.242 -8.12801 180 179.997 -179.104 5.39227 0.006536 1.49313 6.01367 0.019608 1.49313 5.46014 0.00326871 0.895878 177.445 -179.987 -179.702 167.663 174.323 177.864 176.184 167.881 -179.235 170.411 157.989 166.081 125.292 -112.95 -155.905 173.422 -125.005 172.833 -0 -54.2619 -6.78597 1.47135 28.7547 -3.19619 96.3719 123.8 161.27 128.664 129.654 -133.981 -0 32.2956 -31.0575 2.06606 32.6351 9.66944 2.95965 -10.0037 0.0552134 4.02758 -0.0160965 11.4887 162.923 180 -180 26.301 -34.7721 12.2101 161.929 165.426 179.864 9.18672 0.00746645 -11.5204 169.284 180 -180
 87.1546 88.0425 -258.924 8.67028 158.721 -7.96986 180 179.993 -179.11 5.40495 0.0136915 1.48407 6.00114 0.0410746 1.48407 5.39412 0.00684723 0.890444 177.624 -179.988 -179.703 168.154 174.565 177.724 176.342 168.235 -179.331 170.229 157.972 165.807 124.514 -113.197 -156.579 173.524 -124.638 172.936 -0 -54.7979 -6.85022 1.48036 28.7205 -3.21581 95.6609 123.137 161.661 130.121 129.564 -135.365 -0 31.8651 -30.0479 2.31743 32.2771 9.10607 2.53477 -9.98232 0.0143314 4.27497 -0.00244247 11.461 162.924 180 -180 25.9422 -35.2476 11.964 161.87 165.487 179.97 9.51825 -0.005484 -11.5181 169.281 180 -180
 87.0641 88.0463 -258.828 8.56641 158.927 -7.87047 180 179.992 -179.118 5.39668 0.015044 1.47026 5.97463 0.045132 1.47026 5.33407 0.00752359 0.882155 177.748 -179.988 -179.706 168.516 174.663 177.833 176.456 168.491 -179.343 170.153 157.639 165.789 123.729 -113.714 -157.284 173.571 -124.761 172.954 -0 -55.2168 -6.85399 1.49072 28.7582 -3.2383 95.2282 122.59 161.792 131.634 129.452 -136.832 -0 31.5053 -29.014 2.63939 32.0836 8.96263 2.02201 -9.97251 0.0582046 4.44894 0.00425901 11.473 162.926 180 -180 25.7613 -35.5993 11.88 161.825 165.638 179.916 9.61248 -0.00564574 -11.5098 169.278 180 -180
